<svg version="1.2" xmlns="http://www.w3.org/2000/svg" baseProfile="tiny-ps" viewBox="0 0 460 460"><title>malihu</title><path fill-rule="evenodd" d="m60 2-2 2V3l-1-1v3l-1 2-2 2-4 5-2 2 2-1 7-2 4-2V9c-1-1 2-5 4-5s1 1-1 3l-2 3-2 3c-2 2-2 4 0 2l6-1 5-1 1-1h-1l-2-1c0-1 6-5 8-5 2 1 1 3-1 3-2 1-2 5 0 6v2c0 2-1 3-2 2l-1 1v1l-1-1-2-1v2l-1 2h-4l-5-1-1-1-1 1-1 1h1l1 1v1h1l3-1 4 1v3h-4l-4-1h-3l-3 1-1-3c-1-3-1-3 1-3l5-1 1-2-1-2-1-1-1 2-1 2-4 1c-4 1-6 3-2 3l2 1-4 2-2 1c0 1 2 2 6 2l3 1h2l1-2 1 2v4-1h-3l-2 2-1-2-3-1-1 1 1 1 2 2-2 2c-2 2-3 3-4 2l-1 1c1 1 0 2-1 2l-1-1h-2l-2 1 3 2h4l2 1-1 1-2 2-1 4 2-1c3-4 4-3 2 3-1 2-2 5-1 8l1 4v-3l5-6 3-3v3l-1 1c0 2 2 1 3-1 0-3 2-2 2 1l-2 2-1 2c1 0 1 1 0 0l-1 1-2 1-3 2v1h6l-3 1-6 1-3 1v2h3l-1 4c-1 1 0 1 2 1l2-2c0-1 6-1 7 1l-2 3-2 4v3l3-1 1-2c-1-2 1-3 3-1l1 1-1-2v-3h2c3 1 4-1 3-3l1-3c2 0 2-1 1-2v-2l1 1 1 1 2-3 4-2-2 3-2 3-1 1-2 3-1 2 2-1c2-1 3 0 2 2l-1 2 3-2 3-4c5-1 9-4 9-6v-1c1 0 4-2 3-3-1-2 1-3 3-2l1 2 4-3c4-4 7-4 7-1v3l1-3v-9l-2 1v3h-2l-5-1-2-1 4-3c3-1 5-3 5-4v-1l-2 2c-3 1-4 0-3-3 0-2 2-3 2-1l2 1 1-1-2-2h-1l1-1v-2l-2 1-1 2-2-1-2-1-1 3-3 3-2 2-4 1h-3l-2-1 3-1h4l2-3 2-4c-1-1-1-1 0 0 2 0 4-2 4-4v-2l-1 1c-1 1-3 1-3-1l3-1 2 1v-2l1-3 1 1 1 1h1l-1 1c-2 0-3 3-3 5h3c3 0 3-1 3-3l1-1c1 0 2-1 1-3 0-3 2-5 3-3l1 2 2-3c2-3 2-4 0-4l-1-1h2c2 0 4-4 3-5l-2 1-1 2-3 2c-3 3-4 2-4-1l1-3h-4c-2 0-4 0-5-2s0-3 1-3c2 1 8-5 7-7l1-3 1 2v2l1-2 2-2c2-1 0-3-4-3-6 0-8 1-8 3l-1 1h-1l-2 1V2h-1l-4-1-4-1-3 2c-3 3-5 3-3 0V0H61l-1 2m323-1-3 1h-3l2 1c1-1 2 0 2 1l2 2c2 0 3 1 3 2l4 2 5 3 3 1c0-1 2 0 3 2l1 2 3-2 3-3-1 2-1 1 1 2 2 3h2l1 1 2 2 2 1c-1 1 7 8 9 8l2 2 1 2h4c7 0 12 6 12 14 0 4 3 7 5 7l1 1c-1 0 1 3 4 3l2 1v-3l1-8c1-1 3-5 2-6 0-1-1-1-1 1-1 1-1 2-2 1l-1-2-1-1v-2l1-1 1 1c2 2 3 1 3-2l-3-2c-2 0-4-2-2-3h2c3 3 3 2 2 0l-5-5a399 399 0 0 1-1-1c3-2 2-6-1-9l-1-2 1-1c1-4 1-4-1-4l-2 1v-2l1-1 2-1V9h-2l1-3 1-5V0h-26l-1 3-1 4c2 2 0 3-3 2s-4-3 0-3h2l-1-3V1l-3-1-4 1 1 1 1 1-2 1-1-1-1-1c-3-2-29-3-29-1m44 10-3 1h-1c1 0 3 1 3 3l1 2-1 1-1 1 2 3 2 3 3 2 2 2 1-3v-3l-4-1h-3v-5l1-4h-3l1-1 1-2-1 1M36 23l-1 1-2-1-2-1 1 1 1 5 1 5 2 1h-2c-1-1-5 0-5 1l1 1 4 3h-5v2c-1 2 0 3 1 1l2-1v1l-3 3-2 1v3l1 2-3 1-2 1 1 1c1 2 0 4-2 3h-1v2l4-1c4 0 5-1 3-2h-1l2-4 3-3-2-1-1-1h4l1-3 1-3v-3l1-3v-2l-2-2 2-1 2-2v-2c-1-2 0-3 1-4l2-1h-2l-3 2m56 0-2 3-1 1c-1-1-4 2-4 4s2 1 3-1l2-2v2l1 2 1-3 1-3 2 1 4-2 2-3h-1l-3 2-1 2-1-2-1-2-2 1M67 45l1 2c2 1 0 3-2 2l-4 1-3 2v-1l-1-1-1 1-2 3v1l5 1h6l1-2 4-3 3-3 1-2h-2l-3-1h-3m-28 9v3l-3 4-3 4-2 3c-2 2 0 3 5 1l3-2v4l2-1 1-2-1-1c-1-1-2-2-3-1h-1v-2l2-1 2 1 3 1v-2l-1-2h-4l1-2c2-2 2-6 0-6l-1 1m-1 23-2 2c-1 0-2 0-2 2l-3 1-2 2-2 2-2 1v2l1 2-2 1c-2 0-2 1-1 1 2 0 8-5 8-7l1-1 3-1c-1 0 0-2 2-3l5-3 1-1h-5m80 1-3 1h-3l-2 1 1 2v1l-2-1h-3v2l-3 2c-1-1-4 2-4 3l-6 8-6 7 2-1 4-3 3-3 1-2 4-2 4-3 2-2 4-3 2-1 1-1 4-3c4-3 4-4 0-2m-69 9-2 1c-3 0-4 1-2 3l2 1-3 3c-3 5-2 6 2 1l4-4-1-2 1-2 1-1-1-1-1 1m71 4h-2v-1c-2 0-2 1-2 3l-1 1-1 2h-3c-1-1-3-1-3 1l2 1 1-1v2c-1 2 1 3 2 1l2-2 1-1 1-2 4-3c4-3 3-4-1-1m-83 7-4 2-5 5c-3 2-4 4-5 7l-2 6c-1 2 0 3 3 4 2 1 4-2 4-5s0-3 3 0l3 2v-4l1 1 1 2 1-2 2-2H29v-6l1 1h2l1-3 1-2c2 0 3-2 1-2l-1-1 1-1c1 1 5-1 5-2h-3m65 1h-1l-5 3-4 4-1 1-2 3-1 3 10-9 7-4 2-1h-5m-80 31-2 2-2 3-1 1 2 1 2 2 2 2h2l-1-1-1-1 1-1c2-2 2-7 1-8l-2-2-1 2m412 60-6 2-1 1-2 1-1-1 1-2c1-2 0-3-2 0l-1 1 1 2 1 1-3 2-3 3-4 3c-2 0-3 1-4 3l-3 3c-3 1-2 3 0 2l5 2 2 2v-1c0-1 1-2 3-2l5-1 1-1v2l1 1 6 2 4 2-3-1-4-1-2 1-1 2h1l10 1c-1 1 1 1 4 1l6-1v2h4c2-2 0-4-3-4l-5-1c0-1 8 0 11 2l3 1 1 1c1 2 3 1 3-1v-11l-1-1h1l1 1v-4c0-3-1-4-2-4l-2-2-1-1h4l-1-1c-1 0-1-1 1-1l2-1h-2l-2-1c1-1-1-3-3-3l-2 1 1 1h1l-1 1h-2l-2-1-1-1-2-2h-4c-2-1-5 0-8 1m-191 2 1 2h1l-1 1-1 1 1 1 1 2-2-1h-3l1 1h1l-1 2-1 1 1 2 1 3 2-1 3-3 1-2 1-2v-2c3 0 0-4-4-5l-2-1v1M48 207l-1 5-1 5c-1 1-3 9-2 10v12l1 2c0 3 2 3 3 0l2-3v-1l1-3 2-4 1-3 2-5v-4l-2-2c-3-1-4-4-2-4l3 2c3 3 3 3 2-1s-2-5-3-3c-2 2-4 1-2-1l1-2h-5m357 9c0 3 0 4-3 4h-6l-4 1v1l-1 2c-2 0-3 2-1 2a282 282 0 0 0 14 2l1 1h-2l-4 1-5 2-3 1v-1l-1-2v-1l2-1c-1-1-4 0-4 2l-1 1-1 2 5 9 4-1h3l-1 2h-2c-1 0-2 7-1 8v2l-1-2-1-4-2-3h-2v4c0 4 1 5 2 3 1-1 1 0 1 2l1 5 1 2v-5h4l4 3 2 4 1 2h-2l-4-2h-1l1 1c3 2 1 2-2 0l-4-1c-1 1 1 3 3 3s5 4 4 5l-3-2-2-2v2c-1 2 0 2 1 3l5 7 4 7 1 1c-1 1 0 4 1 6l1 4 3 3 2 2-1-2v-2h1l3 1v1l2 4 2 1 1-1 1-1-1-1v-2l-1-1h-2v-2c1-4-1-4-3-2s-4 2-4 0l1-1 2-1c3-1 5-1 7 1l3 1 2 2 1 1c1-1-1-6-4-7l-1-2 1-1v-1l1 1c-1 1 0 2 2 3l3 2 2-1 1-2-3-1c-5 0-5-2-1-1h3l-1-2-1-1h1c1 1 2 0 4-3l1-5h9l3-1 3-2h-2v-1h2l5 2h3v-5l-1-6-4-5-6-6-2-1c0-2-14-9-16-8h-2v-7l5-1 4-1 2 1 3 1-4-3-3-2c0-1-3-3-5-3h-3l-1-1c-1 1-5-1-4-2l-2-1-3-1v-2l4 1 4-1c0-2-8-2-10-1h-2l-1-1h2c2 0 3-3 0-3l-4-1-3 1m37 16v2l-1 1 1 2 1 2 1 1h3l3 2c2 0 8 6 8 7l1 2 1 2v-3l-3-5-1-3 1-3h-5l-1 1-1-1-2-2c-3 0-4-2-1-3l1-1-2-1h-1l-2-1-1 1m-32 13-2 2-2 2v2h-3c1 1 7 4 8 3l2 1h1l1 1v1l1-1 1-1-1-1-1-1 1-4v-4h-5l-1-1v1m11 2v4l-1 3h3c5-1 6-2 6-4v-3h-8m9 11c-4 5-4 5 1 5h2l3 1 2-1v-3c1-2-1-5-3-5l-1-1c0-2-2-1-4 4m-394 2v4l-1 1h-1l-1 4-1 2 2-1c0-2 2-3 2-3l1-2c0-1 0-2 1-1 2 0 3-2 2-4h-4m374 10 1 1 1 1 3 4c1 1 2 2 1 3 0 2 3 5 5 4l3 1c2 3 3 2 3 0v-1l3-2h-6v-2l-1-2 2 1 2 1v-1c0-2-2-5-2-3l-1 1v-3l-3 1-4-1-2-1-2-1c0-2-3-3-3-1M19 349l3 3 1 5 1 10 1-2v-4l-1-2v-1h6l-1-1-1-1-10-10 1 3m301-1-5 3c1 1 8 0 8-1l4-1c4-1 6-3 2-3l-9 2m82 9-6 3-4 4 3-1 6-3 3-2 1-1 3-1c1-2-3-1-6 1m-107 13-1 4v1l-1 2-1 2 2 1c3 0 2 3-1 2l-3 1-2 2h-1c2 0 1 2 0 2l-2 2-3 1-3 1-1 1-1 1-1 2c-1 0-1-2 1-3 1-1 2-3 0-2l-1-1c0-1 1-2 2-1l1-1c0-2-2-2-5 1l-2 1 1-3v-4h-1l-1 2-2 3-2 1-2-1-1-4v-3l-1-1v1l-1 4v2l1 1h-1l1 2 3 3-1 2-1 3v-2l-1-2-1-1c0-2-4-1-5 1l-2 1-1 2-2 1h-1l1-1 1-2 1-3 1-4c-1-1-6 4-5 5l-1 1-1 2c0 2-2 2-5 1l-3-1-2 2-3 3h-3c-3-1-4-3-1-3l2-2 2-1 2 1v-4l-10 6-2 1c-1-1-3 0-4 1l-2 2 3-1c4 0 4 1 1 5l-3 2v-1l-1 1v3c0 1-3 4-5 4l-6 1c-3 2-6 3-7 2l-2 2-1 2-3 2-3 3h2c4 1 6 1 8-1l3-2-1 2-1 2c1 1-3 7-4 7v2l2 2h4l7-2h2l-3 2-2 4c1 1 0 2-1 2l-2 2v2l-2 3-2 3 1 1 1 1-1 1-1 2h1c3 1 4 0 6-3l2-3h-4l-1 1v-3l2-4v-1l2 1c1 1 1 1 1-1l3-6h2l-1-2v-3l1-2v-1h4c4 0 7-3 3-4l-1-1h2l2-1 2-1c2-1 2-1 1-2l-1-1 2-1 2-2 1 2c2 2 4 0 2-2-1-2 0-4 2-3 1 1 3-3 3-7l1-2c1 0 2 3 1 4l2 2 4 1 1-3c2-2 3-3 3 0v2l2-1h2l-1 2v3h1l2-1 4-3 3-1 1 2 2 2 4-5 6-5 3-1 2-1c3 0 3-1 2-4v-1h1c0 1 1 2 3 2l3 1h-3l-2 1 1 2 1 1-2 1-2 4c0 6 0 8 1 7s2 0 3 2l1 2 2-1 3-1-2 1c-3 4 0 4 4 0 1-1 2-2 3-1h2l3 1-1 2c-2 0 0 2 3 2 2 0 3-1 1-3h2l2 1 2-4 2-3h7l-1 2 1 2 1-1 2-3 2-2v2l-1 4v2l1-1 2-3 2-3 2-1c1 0 2 3 1 7v5h-5l-5 2c-3 2-2 3 2 3l6-1h3v-1c-1-2 1-7 2-7v7c-1 3 2 5 3 1l1-2h7l1 2 2 2 4 1 5 1 4-1h2l-1 2v6h2c1 0 3 0 4 2l1 2 1-2c1-2 2-1 4 2l2 3-2 1-2 2h-5l3 1 1 2 2 4 2 2 3-2 3-2 2 1 2 2 1-2 1-3 2-3 1-2h-1l-2-1 2-1 2 1 2 1 2-2 1-2 1 1v1l2-1h1v-4c-1-7 0-10 6-11 4 0 4-1-2-8l-6-8-5-11-8-17-1-3-2-2-3-3c-1-3-4-5-6-3l-2-1-1-1-7 1-8 3-1 2 2 1c1 1 2 2 1 3l1 1 3 4 1 3h-2l-2-1-1-5-1 4-1 9c-1 1-1 2 1 3l1 2h-3l1 1v2c-1 1-2 0-3-3l-2-4 1-1c2 1 2 0 0-5s-7-11-9-10l-2-1-2-3h1l1-1c-8-7-13-9-13-5l-1 1-1 2-1 4-2 3 1 1c2 2 3 1 3-3l1-4 1 1 2 2 1 1 2-2c3-3 4-2 2 3-1 2-2 4-1 5l-1 3v2c2 1 1 3 0 3-1-1-2 0-3 2l-2 3v-5c2-1-3-6-5-6-3 0-4-2-3-5v-3h-2l-4 1h-3l-3-1 1 2v1l-3-1-5-1-3-1h-2v-5l-2-8-2-1c-1-1-1 0-1 2m18-1-2 1c-2-1-2-1-1 2 2 3 1 4-2 2-2-2-3-1-3 1v2l-1 2v1l4-1h4v1l1 1-1-3-1-1 2 1c3 1 5 1 3-1s-1-3 1-3h3l1-2-3-2c-4-2-7-3-5-1m-278 3h-4l-3 1-4 2c-1 1-1 1 2 1l4 1 3 1 3 1v-4l-1-3m423 0v2l-1 3-2 7-1 7c-2 3-4 8-3 9l-3 3-3 1 1 1 2 1-2 1-1 3c0 2-17 20-19 20v1l-3 6-4 4-2 4-3 3-4 5c-6 7-6 7 0 7h5l1-2 1-2 1 2v1c1 0 2-3 1-4l-1-2c1-1 3 2 3 4 1 4 3 4 5 1l1-2-2 1c-2 0-6-5-4-6 1-1 3 0 3 2v1l1-1 2-1 1 2v2l1 1 2 1 1 1v-2h-1l1-2 1-2-1-1-2-1v-5h6l-1 2v3l1-2v-4l1-3 1 1c-2 2 0 3 2 1l1-2-1-1v-1l-1-1-2 1 1-1 2-1 1-1v-2l-1-1-1-1 1-2 4-2 2-1 3 1h3l1-2 1-3h-3l-2 2-1 1c-2-2-1-5 1-5v-5l1 1c0 2 2 4 4 3 3 0 2-2 0-1l-3-1 1-1 1-1 3-3 2-4v-2l-3 3c-2 3-8 5-7 3l2-1 2-1-1-1-2-1 3-1 4-2c0-2-3-3-4-1l-1 2v-2l2-3 1-3 3-2c2 0 3-2 3-3v-1h-2l-2 1 1-1 2-2h1v-10c0-10-1-13-2-10m-65 1-2 1-1 1h-2c-2 0-3 1-1 3l2 2c1 2 7 5 7 4l-1-1c-2-1-2-3-1-3l3-2c3-2 2-4 0-4l-3-1h-1M24 386l-2 3-1 2 2 1h5l2-1h-2l1-1 1-2-1-1-5-1m279 29-1 2 1 2c2 1 3 1 5-1l2-1v2l1 2 1-3v-4l1-1h-1l-3 2-1 1-1-1c0-3-2-2-4 0m-6 23c-1 0 9 5 12 5l5 2c2 1 5 2 7 1h5c5 0-3-3-9-3l-17-5h-3m46 10 2 2h3l1 1-1 1h-2c-1 1 0 2 2 2 3 0 3-1 3-3s4-1 5 0c0 2 7 3 7 1l-5-3-14-2-1 1"/><path fill="#4d4d4d" fill-rule="evenodd" d="m32 1-1 3-1 3-1 4-1 3-1 2-1 2-2-1v-1l-1 1-2 1-2-1v4l-1 8v4l2 1 2 1v-2c0-1 2-4 3-3l-3 7v1l2 1h-3c-4 0-8 6-5 7 1 1 0 2-1 4l-1 4-1 3c-2 0-2 4 0 4l1 1-2 1h-2v2c1 1 0 2-1 3l-1 1h2c2-1 4 0 3 1l3 2h4l-4 1-4 1 1 2 1 2-3 7-2 6 1 1v1H6c-2 1-2 5 1 4l1 1-1 1-2 2-1 2h1c2-1 2 1 1 4l-2 3H1l2 1h2l-1 1v7l1 4v3l-3 2-2 2v4l1 6 1 4 1 4-2-1H0v5l1 7 1 1c-1 2 3 6 6 7l2 2 2 1 1 1 1 1 4 3 3 1 2 2c2 3 4 4 6 4l2 1c-3 0-1 2 2 2h3l1 3 2 7c4 9 4 13 1 26v4c1 1-1 10-3 11l-1 10 1 1-2 1-1 1v4l-1 2 2 1 1 1h-2l-2 4-2 6-2 8-1 3h2l1 1-1 2-2 3-2 2c-2 3-7 22-5 22 3 1 2 5-1 8-3 2-4 5-1 5h2l-2 1-1 1-4 7-4 2-5 3H1l-1 2v2l2-1 1 1 1 4 1-2-1-2 2 1h3l1-1-1-1c-1-2 0-4 3-4l2-1-1 2c-3 2-2 4 0 5h2l-2 2-1 1 2 2 2 4 2 1 1 3 1 2v7l-1 5 1 1 2 4v2h-2l-4-1c-2-3-3-2-2 0s0 7-2 7h-2l2 2v3c-1 1-1 8 1 10 2 1 2 9 0 11-2 1-1 3 1 3s4 1 5 3l5 2 2 1v4l1 5-1 2-3-4-4-3-3-3-4-7-3-2-1 2c-2 1-2 5-1 6l3 10 2 9-1 3-1 3 2 5 3 5 1 2 2 2 1 1-1 2-1 2c1 1 3-1 3-3l1-1 1 2-1 2h1c2 0 2 0 1-4-1-3 0-4 1-2l1 2 1-2c1-2 2 0 1 2l1 2 1 2v1h13l-1-2v-1l1 1 1 2h55l6-3 8-5 5-4 2-1-2-1-1-1 2-1c3-2 5-2 5 0v2l1-2 1-2 1 1c2 1 5 0 5-1l-5-2h-1l2-1 3-1c2-2 3-2 2 0l1 1 1 1c0 2-4 6-6 6l-2 2s-1 2-3 2l-4 3-5 3c-3 0-7 2-7 3l17 1 17-1 1-3c2-3 2-5-1-4l-2-1 2-1h5l3-1v2c-1 3-4 7-5 6l-1 2-1 1h3l6-2c4-3 5-3 3 0l-2 2h4l6-1 1-1 1 1c-1 1 6 1 20 1 11 0 20 0 19-1h-1l1-2 1-1-1-1-1-1 2-3 2-3v-2l2-2c1 0 2-1 1-2l2-4 3-2h-2l-7 2h-4l-2-2v-2c1 0 5-6 4-7l1-2 1-2-3 2c-2 2-4 2-8 1h-2l3-3 3-2 1-2 2-2c1 1 4 0 7-2l6-1c2 0 5-3 5-4v-3l1-1v1l3-2c3-4 3-5-1-5l-3 1 2-2c1-1 3-2 4-1l2-1 10-6v4l-2-1-2 1-2 2c-3 0-2 2 1 3h3l3-3 2-2 3 1c3 1 5 1 5-1l1-2 1-1c-1-1 4-6 5-5l-1 4-1 3-1 2-1 1h1l2-1 1-2 2-1c1-2 5-3 5-1l1 1 1 2v2l1-3 1-2-3-3-1-2h1l-1-1-1-1 1-1 1-4v-1l1 1v3l1 4 2 1 2-1 2-3 1-2h1v4l-1 3 2-1c3-3 5-3 5-1l-1 1c-1-1-2 0-2 1l1 1c2-1 1 1 0 2-2 1-2 3-1 3l1-2 1-1 1-1 3-1 3-1 2-2c1 0 2-2 0-2h1l2-2 3-1c3 1 4-2 1-2l-2-1 1-2 1-2v-1l1-4c0-2 0-3 1-2l2 1 2 8v5h2l3 1 5 1 3 1v-1l-1-2 3 1h3l4-1h2v3c-1 3 0 5 3 5 2 0 7 5 5 6v5l2-3c1-2 2-3 3-2 1 0 2-2 0-3v-2l1-3c-1-1 0-3 1-5 2-5 1-6-2-3l-2 2-1-1-2-2-1-1-1 4c0 4-1 5-3 3l-1-1 2-3 1-4 1-2 1-1c0-4 5-2 13 5l-1 1h-1l2 3 2 1c2-1 7 5 9 10l1 5h-2l2 4c2 5 2 5 3 4v-2l-1-1h3l-1-2c-2-1-2-2-1-3l1-9 1-4 1 5 2 1h2l-1-3-3-4-1-1c1-1 0-2-1-3l-2-1 1-2 8-3 7-1 1 1 2 1c2-2 5 0 6 3l3 3 2 2 1 3 8 17 5 11 6 8c6 7 6 8 2 8-6 1-7 4-6 11v4h-1l-2 1v-1l-1-1-1 2-2 2-2-1-2-1-2 1 2 1h1l-1 2-2 3-1 3-1 2-2-2-1-2-1 1-3 3-2 1h12l13-1 5-6 4-5 3-3 2-4 4-4 3-6v-1a85 85 0 0 0 20-23l2-1-2-1-1-1 3-1 3-3c-1-1 1-6 3-9l1-7 2-7 1-3v-3c3 0 2-5 0-8-2-2-2-4 1-3l1-1-1-1v-16l-1-2 1-1a458 458 0 0 1 0-53l-2-4c-1 0 0-6 2-9l2-10v-8l-2-3-1-3c0-1-6-7-8-7l-3-2h-3l-1-1-1-2-1-2 1-1v-2l1-1 2 1h1l2 1-1 1c-3 1-2 3 1 3l2 2 1 1 1-1h5l-1 3c0 2 1 3 2 3l1 3 1-14v-18l-1-3v7c0 2-2 1-3 0l-1-1-3-1c-3-2-11-3-11-2l5 1c3 0 5 2 3 4h-4v-2l-6 1c-3 0-5 0-4-1l-10-1h-1l1-2 2-1 4 1 3 1-4-2-6-2-1-1v-2l-1 1-5 1c-2 0-3 1-3 2v1l-2-2-5-2c-2 1-3-1 0-2l3-3c1-2 2-3 4-3l4-3 3-3 3-2-1-1-1-2 1-1c2-3 3-2 2 0l-1 2 1 1 2-1 1-1 6-1 6-3 4 1 4 2 1 1 2 1h2l1-1h-1l-1-1 2-1c2 0 4 2 3 3l1 1h2v-19c1-43 0-91-1-91l-3-9v-1l1 1 2 1-1-2-1-2 2-2 1-2-2-1h-1l2-2 1-1-1-2v-6l1-5-1-3v2l-2 2-1 7v4l-2-1c-3 0-5-3-4-3l-1-1c-2 0-5-3-5-7 0-8-5-14-12-14h-4l-1-2-2-2c-2 0-10-7-9-8l-2-1-2-2-1-1h-2l-2-3-1-2 1-1 1-2-3 3-3 2-1-2c-1-2-3-3-3-2l-3-1-5-3-4-2c0-1-1-2-3-2l-2-2c0-1-1-2-2-1l-2-1h3l3-1h-9l-1 2V0h-7c-4 0-7 0-6 1 2 0 3 2 1 3l-1-1-2-1V1h-19v2l1 2-1 1-1 2 3 1 3 2V9l-1-1c-3 0-2-2 0-2s2 1 2 4l3 3 3 3 2 3 1 1v-1l-1-2-1-2c1-1 7 0 8 2l2 1h4l3 2v-2l1-1 2 1 4 2 2 2 3 1h2l-1-1-1-2 2 1 2 1c0 2 5 5 8 4l2 1-3 2h-3l2 1h10l-3 1-4 1v5l1 2c2 2 3 9 1 9v1c1 2-1 3-3 2l-1-1 1 2v2h-3c-1 1 2 2 3 0h3l3-1 2-1v1l1 1c1 1 2 2 3 1v1c0 3-3 3-3 1l1-1h-3c-2 0-2 0-3 2v4l-1 3h2c2 1 3 4 1 4l-1-1c1-2 0-2-2-1l-1 1-1-1 1-4 1-2-1-1h-5l-1-1-2 2-2 1-2-1-2-1-1 1c-1 1 0 2 2 4l3 3h-2l-1 1 2 1c2 2 4 2 2 0l-1-1h2l3 1-1-2-1-1 1-2 1-1h-1l-2-1 3-1h2v7l1 2h3c2-1 3 1 1 2h3v3c0 4-2 6-6 6-2 0-3 3-1 4l2 1-1 3-2 3-1 2c2 1 4-2 4-5l2-4 1-2 2-2 4-2 2 3 1 3 1 3 2 1v11h5v6l-1 5v7l4 3c3 2 4 3 1 5l-1 1h1c2 0 3-3 3-4-1 0 0-2 2-2l2-2v1l-1 2-2 2v2h5l1 1v2l-2-1c-4-1-4 1 0 5l3 5-2-1-2-2v4c-2 1-1 3 1 3l2 4v12l3 3 3 5v2l1 3 1 2h-1l-3 3-2 2-1 2v1l-1-1h-2l-2 1-2 2c-1 2-4 3-4 1h-1l-2 2-2 4v2h-8v3l-1 2h2l3-1-2 1c-3 1-4 2-4 0l-2-2-1 1c1 4-1 5-3 1l-1-2h3l-1-1-2-1-3 3-4 4c-1 0-2 1-1 2l-1 1-1 2-1 2v-1l-1-2-2-2v-1l-2 1-1 2 1 1 2 1h-3l1 1 2 1h-2l-2-3-1-2-2 2c-2 2-2 5 0 8l-1 1c-2 1-2 3 1 3h2l-1 3c0 4-1 5-2 3l-1-1v7l1 2-2 1-1 1h3l1-1-1 2c-1 4-1 7 1 12l3 7 3 4 2 4h-1l2 2 1 2-1 1c-1 2 0 6 2 6v-3l1-3 2-1v5l1 3-1 1c-1-1-1 0-1 1v1h2l2-1v2l1 4v2h-2l-2 1v1h3l3-1-1 3v2h1c2-1 4 2 3 5l1 1v1l1 3 1 1h-1c-2 0-3 3-2 4 2 2 3 10 2 11v3l1 1 1-1v-9c2 1 2 9 0 12l-2 3 1 2 1 3-2-2v2l-1 5-1 3-1-4-1-3h-3c-3 1-4 0-2-2h2c2 0 3-1 1-3v-4l-1-2-1 3-1 3-1 2-1 2-1-1c0-2-3-1-3 1-1 2-1 2 1 2l2-1-3 2c-3 3-4 2-4-4v-5l-2-1-1 1-1 3-1 3v1c1 1 3 5 1 5h-1l1 2 1 2 3 4 3 2-1 2-2 2c-1-2-2-1-2 2l1 3 1-1 1-1-3 4-3 3 1 1 5-3c2-3 5-4 5-2v2l1 2-3 3-3 4h-2c-2-2-4-2-6 0l-3 1-2 1h2c3 0 4 2 0 2l-3 1-3 2-5 1-3 1-1-1-2-1-2 1-1 1h1c2 0 2 1 0 4l-2 3-4-4-8-7-4-4-2 1-2 1v-2l2-3 1-3c-1-2-2-1-3 2l-2 4h-11c-3-1-6-2-7-1l-9-8-14-12c-3-1-5-4-5-4l-1-2-2-2-1-2v-2l2-2-1-3-2-4v-1c2-1 1-3-1-3h-1l2-1c1-1 2-1 1-2l-1-1c-1 1-2 0-1-1 0-2 2-3 2-1l3-3 3-4-1-1-1-1v1l-2 3h-5l1-1 4-3c1-2 3-3 3-2 1 0 2 0 3-2l1-1c-4 3-4 0 0-3l2-3h-2l-2-1c0-2-3-1-3 1l-2 1-2 2c0 3-2 5-3 3v-2l-2 1-1 3-2 5-2 5-1 4-1 1h2l3-1-1 3-2 3 2 3v4c0 3 0 3-3 2l-3-1v2l2 2v2l1 3h1l-1 2v5l3 1c3 0 4 1 5 2 0 3-1 4-2 2l-1-1v2c0 2 1 3 4 2l1 1 2 2 2 2c-1 1 0 1 1 2l3 2 1 1c1-2 5-2 5-1l-7 3-3 2-2 2v3c1 3 1 3-4 0l-5-3-3 1h-2c0-1-6 3-9 7l-5 4c-2 0-2-2 1-5 5-4 2-3-5 1l-6 3h-2l-1-1-1-1v1l-2 1h-2l1-2c1-5-2-3-4 1s-4 6-4 3l-1-1-1 2c2 1-1 6-5 7l-3 2 1-2-1-3-1-1 2-3 1-3-1-1-1-1-1 1c-1 1-2 2-3 1h-2v2l-2 5-3 5-1 3c-2 2-4 7-2 7v3l-2 2h2l1 1-1 1v2l-2 1c-1 0-2 0-1-1 2-1 1-2-2-3l-4 1-4 1-4 1c-6 3-10 4-11 3l-2-1-2 2-6 7-5 4h-2l-2 1 1-2 6-6c9-6 12-11 4-9l-4 1 2-4 4-4 3-3-1-1c-1-1-2 0-4 1l-3 2-3 3-4 2c-1 0-2 1-1 2v1h-2c-3 0-3 1-3 3h-5l-1 2-4 4-3 2v-2l1-2c1 0 2-1 1-2v-1l2 1 1 2v-2c-1-1 0-2 2-3l7-4 5-2 2-2 3-4c4-4 7-8 7-11l1-4 1-3 2-4 1-2h-1l-3 2-1 2-2 1-2 1 1 2 1 1-3-1c-3 0-4-1-2-2l1-1 2-2 1-3 2-2 1-1h-7v2l1 2h-4l-3 1-3 1-2-1-3-1h-6l3-1 5-4 4-2 4-2c3-3 1-3-5 0l-5 2-1 1-1 1-3 1-3 2-1 1-1 2-1 1-2-1-1-1 1-1h-4l1-1 2-2-1-1v-2l1-3c0-4-4-1-8 6l-4 2-2 1-1 1-3 3c0 2-1 2-3 2l-2 1-3 3-3 2v-1l1-2h-2c-3 1-5 2-4 3l-3 2-3 2h-1l-1-1-1 1-1 3-1 1-4 1-3 2-1 2v2h6v-5l1 1 1 1 1-1 3-1h3l-2-1c-2-1-2-2-1-2 2-2 6 0 6 2l2 1 1-2h-1c-2 1-1-2 1-4s3-1 2 1v2l-4 6c-7 8-9 10-8 11l-1 1-4 2-4 3c-2 1-2 2-2 3v2h-3l-3 4c-1 3-7 7-9 6l-3 1-3 2-2 1v-1c1-1 0-2-1-2l-1 2c0 3-6 2-7-1v-2c-1-2 0-5 3-5l3-2 2-2 1 2v1l1-1 1-1 1 1h5l-2 1-5 3-4 2h10l2-2c0-3 3-5 8-6 3-2 3-3 1-4l-1 1c1 1 0 2-4 2l-3 1 1-1v-3l-2 2v2l-2-1-1-1-1 1c-2 1-4 0-4-2l-2-1h-1l2-2 3-2 1-2 1-3c2-2 0-3-2-1-3 1-3 1-2-1l1-1 2-1v-2l-1-3v-2l2 1 2 1 2-1 1-2 2-1c1 0 4-1 5-3l3-2 5-2c2-2 4-3 5-2l2 1h-2c-1 0-2 0-1 1 0 2 3 1 4-1s2-4 7-7l3-2 2 2 2 1v-1l1-2 5-4 5-4 1-2 1-2 1 1h1l3-1 4-2 9-5h3l1-3v-11h1l2-1c0-2-2-1-3 1l-2 1-1-1h-2l-1-1h-2l5-5 2-1c1-3 0-3-3-1l-4 2-4 1c-3 1-5 1-4-2v-3l4-5 3-4h-3l1-2 2-1h-2l-2 3c0 2-1 4-3 4v-5l-2-1c0-2 2-4 3-3v-1l-1-1-1 1-4-1c-1-4-1-6 1-8 3-3 3-4 0-3h-2l-1 1-1 1-3 2-4 3-1 1-1 1-3 3c-2 4-3 5-2 2l-1-2-1 2-2 3c-3 0-3 0-1-3l1-3-2-1-2-1 2-2c4-3 10-6 11-5s10-4 10-6l-3-1-3 1-1-3c0-2-1-3-3-1l-2 2c-1-1-6 4-6 5l2-1h2l1 1-1 1-5 1-2 1-2 3-3 3c-1 0-2 1-1 2h2c2 0 4 2 2 4v1l-1-1-1-1-3 2-3 3v2l-1 1-5 5-6 3v-3l-1-1-1 2-1 2-2 1h-2l1-2c0-1 3-5 7-8l7-8c-1 0-7 2-9 4-1 2-4 3-4 1l3-3 5-6c1-2 3-3 4-2h1l-1-1v-2l2 1c3 2 3 3 0 3h-2l1 1c2 1 4 0 4-3l1-1h2c3-1 8-4 8-6 0-3-1-3-3 0-1 2-2 3-3 2l-3 1c-3 2-5 2-5 1 0-2 6-5 9-4h2l-2-2-3-1-1-1h4l1 1 1-3v-2h2l3-2c0-1-1-2-2-1l-2-1-1-1-1 2v1l-1-2-3-1h-2l1 1 2 1h-4l-3-1c0-2-2-4-3-2s-7 4-7 2h2l1-1c-1-1 0-1 1-1l1-1c-1-1 0-1 1-1l1-1v-2l1-2v-4h2c2 0 2 0 3-2v-2l-1 2c0 2-3 1-3-1v-1l-1 1-2 2-3-1h-4l-2 3-3 4-1 2-1-2c-1-1 0-2 1-3l1-2h-1c-1-1 0-1 1-1l2-1h-1l-2-1 1-2 2-2 1-1h-7l2-2c3-2 5-8 3-8l-1-2-1-1h2c4 1 4 0 0-1l-1-2h1l1 1v-3c0-3-2-5-2-3s-2 3-2 1c-1-2-3-1-3 1l1 1 1 1-3-1-2-1 3-3c1-2 3-3 4-2 2 0 2 0 1-3l-1-2-3 1-2 3c0 2-2 1-3-1l-1-2 1-3c1-1 2-3 1-4l1-1 1 4c-1 4 1 5 2 2 1-1 1-2 2-1 3 1 2-2-1-4-2 0-3-2-2-2h-1c-2 0-2-1-1-3l2-2 1 2 2 3h-1c-1 1-1 1 1 2l2 1v-3c0-3-1-5-3-6a934 934 0 0 0-2-1h3v-1l-2-5-1-2 1-2v-3c-2-1-4-3-3-4l1-3v-8l3-8 3-8v-1l1 1c0 2 3-1 3-4v-3l3-1 1-1-2-1v-1l2-5 1-4 2-4 3-6-1 1-8 5 1-1 1-2v-2l-1-1 3-1 3 1-1-2v-3h2l3-1-1-1-1-1c0-1-1-2-2-1l-1-1 4-1h2l-2-2-1-3h1l3-2c1-3 2-4 3-3s4-3 3-3l2-1 1-1 5-4 4-3 2-3 3-1-2 2c-2 1-2 1-1 2l1 2c0 1 2 1 2-1l4-2c1-1 2-1 1-2s2-3 4-4l3-1 3-2 2-1h-2l-2-1 2-1h2c1-1 0-1-2-1h-3l2-2 4-3c1-1 3-3 7-4l5-4c0-1-4-2-5 0l-4 1h-2v-2c0-1 0-2 1-1 0 2 1 1 6-3l4-4 1-3 1-4v-1l-3-1-4 1v-4l-1-5-1 1c0 3-2 2-3-1l-2-5-2-3 2-2c1-1 2-5 0-5l-2 1-2 1-1-1c-1-1 0-2 1-3l2-3 1-2V42c2-1 1-2-1-2l-2-1 1 2-1 2c-1 0-2-1-1-2l-1-2-1-1h2l2-2c0-2-6 2-8 5l-2 3v-4l1-5 2-4v-4l-1-1c1-1 0-2-1-1h-1l1-1 2-2v-1l1 2c0 3 1 3 3 2 2-2 2-5 0-5l1-4 3-3 4-5c1-4 3-6 4-6l2-1-13-1c-9 0-14 0-13 1l-1 2-2 2-1 2V5l-1-2-1 3c1 2-5 8-7 7-1 0-2 1-1 3s3 2 5 2h4l-1 3c0 3 1 4 4 1l3-2 1-2 2-1c1 1-1 5-3 5h-2l1 1c2 0 2 1 0 4l-2 3-1-2c-1-2-3 0-3 3 1 2 0 3-1 3l-1 1c0 2 0 3-3 3h-3c0-2 1-5 3-5l1-1h-1l-1-1-1-1-1 3v2l-2-1-3 1c0 2 2 2 3 1l1-1v2c0 2-2 4-4 4-1-1-1-1 0 0l-2 4-2 3h-4l-3 1 2 1h3l4-1 2-2 3-3 1-3 2 1 2 1 1-2 2-1v2l-1 1h1l2 2-1 1-2-1c0-2-2-1-2 1-1 3 0 4 3 3l2-2v1c0 1-2 3-5 4l-4 3 2 1 5 1h2v-3l2-1v9l-1 3v-3c0-3-3-3-7 1l-4 3-1-2c-2-1-4 0-3 2 1 1-2 3-3 3v1c0 2-4 5-9 6l-3 4-3 2 1-2c1-2 0-3-2-2l-2 1 1-2 2-3 1-1 2-3 2-3-4 2-2 3-1-1-1-1v2c1 1 1 2-1 2l-1 3c1 2 0 4-3 3h-2v3l1 2-1-1c-2-2-4-1-3 1l-1 2-3 1v-3l2-4 2-3c-1-2-7-2-7-1l-2 2c-2 0-3 0-2-1l1-4h-3v-2l3-1 6-1 3-1h-6v-1l3-2 2-1 1-1c1 1 1 0 0 0l1-2 2-2c0-3-2-4-2-1-1 2-3 3-3 1l1-1v-3l-3 3-5 6v3l-1-4c-1-3 0-6 1-8 2-6 1-7-2-3l-2 1 1-4 2-2 1-1-2-1h-4l-3-2 2-1h2l1 1c1 0 2-1 1-2l1-1c1 1 2 0 4-2l2-2-2-2-1-1 1-1 3 1 1 2 2-2h3v1-4l-1-2-1 2h-2l-3-1c-4 0-6-1-6-2l2-1 4-2-2-1c-4 0-2-2 2-3l4-1 1-2 1-2 1 1 1 2-1 2-5 1c-2 0-2 0-1 3l1 3 3-1h3l4 1h4v-3l-4-1-3 1h-1v-1l-1-1h-1l1-1 1-1 1 1 5 1h4l1-2v-2l2 1 1 1v-1l1-1c1 1 2 0 2-2v-2c-2-1-2-5 0-6 2 0 3-2 1-3-2 0-8 4-8 5l2 1h1l-1 1-5 1-6 1c-2 2-2 0 0-2l2-3 2-3c2-2 3-3 1-3s-5 4-4 5v2l-4 2-7 2-2 1 2-2 4-5 2-2 1-2V2l1 1v1l2-2 1-2h-4l-4 1c0 2 0 3-1 2l-3 2c-1 3-3 5-4 3-1-1 0-4 1-4 0 1 2 0 3-2l2-2h-9L32 1m418 3-1 5h2v2l-2 1-1 1v2l2-1c2 0 2 0 1 4l-1 1 1 2c3 3 4 7 1 9l-1 1h2l5 5c1 2 1 3-2 0h-2c-2 1 0 3 2 3l3 2c0 3-1 4-3 2l-1-1-1 1v2l1 1 1 2c1 1 1 0 2-1v-2l1 1c1 1 1-2 1-7v-9h-1l-3-4a157 157 0 0 0-2-15l-1-3h1c1 1 3 0 4-2 2-2 3-4 1-4l-4 1-2 1V0l-3 4m-23 7-3 1h-1c1 0 3 1 3 3l1 2-1 1-1 1 2 3 2 3 3 2 2 2 1-3v-3l-4-1h-3v-5l1-4h-3l1-1 1-2-1 1M36 23l-1 1-2-1-2-1 1 1 1 5 1 5 2 1h-2c-1-1-5 0-5 1l1 1 4 3h-5v2c-1 2 0 3 1 1l2-1v1l-3 3-2 1v3l1 2-3 1-2 1 1 1c1 2 0 4-2 3h-1v2l4-1c4 0 5-1 3-2h-1l2-4 3-3-2-1-1-1h4l1-3 1-3v-3l1-3v-2l-2-2 2-1 2-2v-2c-1-2 0-3 1-4l2-1h-2l-3 2m56 0-2 3-1 1c-1-1-4 2-4 4s2 1 3-1l2-2v2l1 2 1-3 1-3 2 1 4-2 2-3h-1l-3 2-1 2-1-2-1-2-2 1m283 15v6l1 2 2-3 2-2-1-3c-2-4-3-4-4 0M67 45l1 2c2 1 0 3-2 2l-4 1-3 2v-1l-1-1-1 1-2 3v1l5 1h6l1-2 4-3 3-3 1-2h-2l-3-1h-3m-28 9v3l-3 4-3 4-2 3c-2 2 0 3 5 1l3-2v4l2-1 1-2-1-1c-1-1-2-2-3-1h-1v-2l2-1 2 1 3 1v-2l-1-2h-4l1-2c2-2 2-6 0-6l-1 1m-1 23-2 2c-1 0-2 0-2 2l-3 1-2 2-2 2-2 1v2l1 2-2 1c-2 0-2 1-1 1 2 0 8-5 8-7l1-1 3-1c-1 0 0-2 2-3l5-3 1-1h-5m80 1-3 1h-3l-2 1 1 2v1l-2-1h-3v2l-3 2c-1-1-4 2-4 3l-6 8-6 7 2-1 4-3 3-3 1-2 4-2 4-3 2-2 4-3 2-1 1-1 4-3c4-3 4-4 0-2m-69 9-2 1c-3 0-4 1-2 3l2 1-3 3c-3 5-2 6 2 1l4-4-1-2 1-2 1-1-1-1-1 1m71 4h-2v-1c-2 0-2 1-2 3l-1 1-1 2h-3c-1-1-3-1-3 1l2 1 1-1v2c-1 2 1 3 2 1l2-2 1-1 1-2 4-3c4-3 3-4-1-1m199 3c1 1-4 4-6 4-3 0-2 2 0 3 3 3 4 2 6 0l2-2 2 2 1 2 3 3 2 3h-5l-3 1v-2l-1-1-2 1h-3l-2-2h-1l1 2-1 4-1 1h5l2 1 5 1h4l2 3 2 5c0 2 4 9 7 11l2 4 1 2 1 1-1 1c-1-1-1 0-1 1l1 1 2 1 2 2-1 1-1 2 2-1 2-2-2-3c-2-4-1-5 1-1l2 3-1 2-1 2 2 1h2l-1 3c-1 3-1 3 4 3l4-1 1-3 2-2v-3l1-4v-1l-1-3-1-2-2-1 2-1h1l2 1h1v-9l-1-1 1-1v-1c-1-1-4 0-4 2l-1 2h1c3 0 4 0 2 3h-5l-1-1-1 1-2 1v-1l-1-2-2-2h2c2 1 3 2 4 1l2-1-2-1-3-1c-3 0-5-3-4-6v-1h-4l-1-1-1 1c-1 2-3 0-3-3l-1-3c-1 0-1-1 1-1l4 1h5l-1-1-2-1c-2-2-4-3-5-1 0 1-4 0-5-2l-1 1v2l1 2c-1 1 0 2 1 3l1 2-1 1c-3 1-4-1-4-5l-2-7c-3-4-4-7-2-6 1 1 1 0 0 0l-1-2-2-1-2-2-3-2h-1m82 3 1 6 2 3-1 3v4h1l3 2c0 2 1 2 1 1l1-1 3-1-2-1c-1 1-2 0-3-1l-1-2 1-1 1-1 1 1c1 3 3 2 3 0v-2l-3-1h-4l1-2 1-2-3-2c-1-2-2-3-1-4l-1-2-1 3M37 98l-4 2-5 5c-3 2-4 4-5 7l-2 6c-1 2 0 3 3 4 2 1 4-2 4-5s0-3 3 0l3 2v-4l1 1 1 2 1-2 2-2H29v-6l1 1h2l1-3 1-2c2 0 3-2 1-2l-1-1 1-1c1 1 5-1 5-2h-3m65 1h-1l-5 3-4 4-1 1-2 3-1 3 10-9 7-4 2-1h-5m119 23h-2c0-1-11 4-14 8l-3 2-1 1-1 2-3-2-3-1 1 2v1h-4l-2 1-2 1h-2v2l2 5v3h-2l-1-1c0-1-6-1-7 1 0 1 1 2 2 1l4 2c0 2 2 3 3 3v1c0 2 1 3 8 4h4l-2-1h-2l-1-1v-2l4 1h4v-2l-1-1a214 214 0 0 1-4-1h3l4 1 3 2 4 1h6v-1l1 1 1 1 2-2c2-2 6-3 6-1l-2 1h-3c0 2 4 2 11 1h8c1 1 10 0 20-2h2v1c-1 2 1 4 2 2 1-1 11 0 11 1l-1 1h-2l-2 1 2 2 5 3h1l-1-2c-2-2-2-5 0-5v3l-1 1 2-1 2-1 1 2 3 1c3 0 7 2 7 4l11 8 2-1 3 1h3l1 1c0 1 4 5 8 7l3 1 1-2v5l3 3 2 2 2-1 1-1 1 1c2 2 2 1 9-5 4-4 6-7 6-9l1-3-3 1h-2l2-1c2-1 3-3 0-3-1-1-2-2-1-3 0-2-3-7-5-6-2 2-5-1-4-3l-1-1h-2l-1-1c-1 1-2-1-3-2-3-4-7-8-9-8l-4-1-2-1-3-1c-1-2-2-2-5-3l-7-2c-4-1-8-2-12 0l-2-1c3-4-21-6-29-3h-3l-2 1-1 2-1-2-4-2h-1l1-3 1-1 1-1h-1l-5 1-4 1v-2l-1-1h-10l-2-1h-2l2-2 3-2h3l-2-1c-2-1-4-1-6 1m-199 8-2 2-2 3-1 1 2 1 2 2 2 2h2l-1-1-1-1 1-1c2-2 2-7 1-8l-2-2-1 2m411 1c-1 2 1 2 2 1l2-1v1l-2 4-2 2h3l2-2h3c1 0 2 0 1-1l-1-1c0-3-6-5-8-3m-238 6-4 3c-3 2-4 5-1 4h2v1c-1 2 0 2 2 0l1-2c-3 1-2-2 0-4l2-2c0-2-2-1-2 0m-13 19-1 2c-5 0-1 3 6 4h3l-1-2-3-2-3-2-1-1v1m-128 6-2 3-2 1c-2-1-5 2-5 4v1l1-1c2-1 3-1 3 1l1 1 5-7v-1l1-2v-1l-2 1m227 14c6 6 7 8 7 9v1l-2-1c-3-3-2 0 2 4l4 5 1 1v1l2 2 3 1v3l2 4h1l2-1h4v-4l-2-6c-2-5-16-18-18-17l-4-2-4-3 2 3m-54 6-3 1 4-1 5 1 6 1 5 1-3 1-11 1-10 1-5 2-5 1c0 2-4 1-4 0 0-2 2-3 4-4l8-3c0-2-18 3-23 6l-4 2 4-1 6-1 2-1 1 1c1 2-1 5-3 5-5-2-14 6-10 9l1 2h15l7 1 11 1 6 1 9 3 7 3 3 1h7v1c-1 1 0 1 1 1l2 1 2 1 1-1h2l3 1-2 2-1 1h2l3-1c1-2 10-1 11 1s5 3 5 2c0-2-4-7-6-10l-8-9 3 2 2 2 2-1 2-1 2 2 3 2 4 2 3 2 2 6 3 3 3 2 2 1 3 2 1 2v-3l-1-2 2 2 3 2v9l1 2h7l7-1 1-1v-2h-3c-7 1-13-4-9-6 2-1 2-3 2-6l1-3-3-1-3-3-2-3-3-1-1 2v5l-1 2-1-2-2-4-3-6-3-5-1-1 1-1 1-1h-2l-8-7-6-5-5-4c-5-6-9-7-29-7l-17-1-3 2m16 10 1 2h1l-1 1-1 1 1 1 1 2-2-1h-3l1 1h1l-1 2-1 1 1 2 1 3 2-1 3-3 1-2 1-2v-2c3 0 0-4-4-5l-2-1v1M4 194c-2 1-3 6-1 6l1-2-1-2h2l4 3c2 5 2 5-2 5-3 1-4 3 0 3l2 1H1v6l2-1 4-2 2-1c1-1 1-1 1 1s-1 3-3 3l-2 3-3 2-1 4c0 4 1 4 8-3l8-6c2 0 1-6-2-8l-4-7-4-6-3 1m248 6-4 6-2 3c1 2 7 1 9-1l5-2c3 0 4-2 2-3l-1-2c0-2-4-6-6-6l-3 5m-26-1c-2 3-1 5 3 5 2 0 4-2 2-5-1-2-4-2-5 0m-178 8-1 5-1 5c-1 1-3 9-2 10v12l1 2c0 3 2 3 3 0l2-3v-1l1-3 2-4 1-3 2-5v-4l-2-2c-3-1-4-4-2-4l3 2c3 3 3 3 2-1s-2-5-3-3c-2 2-4 1-2-1l1-2h-5m357 9c0 3 0 4-3 4h-6l-4 1v1l-1 2c-2 0-3 2-1 2a282 282 0 0 0 14 2l1 1h-2l-4 1-5 2-3 1v-1l-1-2v-1l2-1c-1-1-4 0-4 2l-1 1-1 2 5 9 4-1h3l-1 2h-2c-1 0-2 7-1 8v2l-1-2-1-4-2-3h-2v4c0 4 1 5 2 3 1-1 1 0 1 2l1 5 1 2v-5h4l4 3 2 4 1 2h-2l-4-2h-1l1 1c3 2 1 2-2 0l-4-1c-1 1 1 3 3 3s5 4 4 5l-3-2-2-2v2c-1 2 0 2 1 3l5 7 4 7 1 1c-1 1 0 4 1 6l1 4 3 3 2 2-1-2v-2h1l3 1v1l2 4 2 1 1-1 1-1-1-1v-2l-1-1h-2v-2c1-4-1-4-3-2s-4 2-4 0l1-1 2-1c3-1 5-1 7 1l3 1 2 2 1 1c1-1-1-6-4-7l-1-2 1-1v-1l1 1c-1 1 0 2 2 3l3 2 2-1 1-2-3-1c-5 0-5-2-1-1h3l-1-2-1-1h1c1 1 2 0 4-3l1-5h9l3-1 3-2h-2v-1h2l5 2h3v-5l-1-6-4-5-6-6-2-1c0-2-14-9-16-8h-2v-7l5-1 4-1 2 1 3 1-4-3-3-2c0-1-3-3-5-3h-3l-1-1c-1 1-5-1-4-2l-2-1-3-1v-2l4 1 4-1c0-2-8-2-10-1h-2l-1-1h2c2 0 3-3 0-3l-4-1-3 1m-386 5v1l1 3 1 2c1 0 2 4 1 5l-11 12 7-1 4-2c4 0 5-1 5-4l1-3h-1l-2-2v-1l1 1h3l2-1-3-1h-2v-3c0-3-1-5-2-3 0 2-2 1-2-1-1-3-2-4-3-2m248 13c-3 0-9 3-10 4h-1l-1 1 2 1c3-1 10 2 9 5l1 3 1 3-1 2 2-1h3l-2 1-1 1 1 1v3c0 1 1 1 3-1l2-1h2v-3l1-2-1 1-2 1 1-2 1-1 1 1c3 2 11-1 10-4h1c2 0 3-1 4-4l-4-2-3-2c0-1-7-4-8-3l-2-1c0-2-3-2-9-1m-23 2-2 1c-1-1-2 1-1 3l1 2h4c4 0 9-3 7-4-1-2-2-1-2 1v1h-2l-3-1-1-1c1-2-1-4-1-2m166 9-2 2-2 2v2h-3c1 1 7 4 8 3l2 1h1l1 1v1l1-1 1-1-1-1-1-1 1-4v-4h-5l-1-1v1M9 246l-1 5v5l1-1 2 2v2l-2-1-3-1H5l-1 1-1-1-1-2c-1-1-1 2-1 6v8l2 2 7 5 4 2 3-1c3-1 3-4 0-12l-3-9-1-2-1-4c-1-4-2-5-3-4m254-1 1 3 1 2h-3v3c-1 0-3 4-2 5s4-1 4-3l1-2c2-1 1-6 0-7l-2-1m158 2v4l-1 3h3c5-1 6-2 6-4v-3h-8m-206 4c-2 1-4 2-5 1l-4 2-1 2 2-1c4-3 4-1 0 2s-4 4-1 4h5l3 1v4l1 2v2l2-2c1-2 1-2 2-1h2l1-2h-7v-1l1-1h3l5 1 1 1c-2 0-1 2 2 2 1 0 2 0 1-1h2c3 0 5-1 2-2l-1-2c0-2 1-2 3-1 1 1 8 0 9-2v-1l-2 1-2 1-2-1-8-1h-5v-1l3-2c5 0 6 0 5-1v-2c0-2-1-1-3 1l-1 2-2-2v-2h2v-1h-7l-6 1m215 7c-4 5-4 5 1 5h2l3 1 2-1v-3c1-2-1-5-3-5l-1-1c0-2-2-1-4 4m-394 2v4l-1 1h-1l-1 4-1 2 2-1c0-2 2-3 2-3l1-2c0-1 0-2 1-1 2 0 3-2 2-4h-4m284 8 2 4 2 2h5l5-1-4-2-6-2c-1 1-2 0-3-1l-1-1v1m90 2 1 1 1 1 3 4c1 1 2 2 1 3 0 2 3 5 5 4l3 1c2 3 3 2 3 0v-1l3-2h-6v-2l-1-2 2 1 2 1v-1c0-2-2-5-2-3l-1 1v-3l-3 1-4-1-2-1-2-1c0-2-3-3-3-1M15 287c-1 1-2 2-5 2-8 0-11 3-8 8l1 1 3-1 4-4v-1h2c2 0 3-1 4-4 0-2-1-3-1-1m299 10-3 2c-4 0-9 2-9 4l-1 1h-3l-3 3-3 3-2 3-2 5-2 4h1v2l-1 3-2 1h-2l2 1 3-1h3l2-1 4-2 2-1c1-2 2-2 5-2l5-1 7-7 5-4c4-2 4-2 4 2 1 3 2 5 5 4 4 0 4-2 1-2l-4-2c0-2 1-4 4-4l1-1 1-1v3l-1 3 2 1 1 2v-6l2-2 1-3h-3l-1 1h-6c-5 1-7 0-6-4v-2h3l2-1-4-1-6-1-1-1-1 2m-255 0-1 2-3 5c-3 3-5 6-3 6l2-2 2-2c2-1 6-7 5-7v-1l2-1h-4m195 10c-3 3-6 8-6 10l-2 3-1 2c2 0 1 2-1 2l-2 1-1 1c-3 0-5 3-4 5l-2 1h-2v3l1 3-2-1-1-1v1l-2 1-2-1v3l-1 4-4 4-2 3-3 2-3 4-2 2-2 3h3l3-2 2-2c1-2 2-1 1 2l-1 2 4-3 4-3 1 1 2-2 1-2v2c0 1 0 2 1 1v-1h1l2-1 1-1-2 5c-2 4-3 5 0 3l4-1 2-1-1-1 1-1 2-2v-4l1-1 1-3v-2l-1 1h-3l-1-1h-2v-3l1-3 1-1c-1-1 0-1 0 0 2 0 4-2 4-4 1-2 2-3 2-1v5h-2l-2 1-1 2v3l1 2 3-1 2-5 3-6c3-4 4-6 3-10l1-1v-5l2-1 3-1v-6c1-1 1-1 0 0l-2-1v-1l3-2 3-2h-2l-5 3m-196 6 1 2h-4l-1 2-2 2-1 1-2 2-2 4-2 2-2 2 1 1 2-1c1-1 2-2 4-1l2-1-1-1-1-1 2-2 1-1 2-2 1-1 1-3c2 0 4-3 3-4v-1l-1-1-1 2m262 1-2 4-2 1-2 1c-2 1-3 3 0 3l1-1c-1-1 0-1 1-1l6-2 3-3h-4l1-2v-3l-2 3m-18 1-2 1-1-1v2l1 2c0 3 9-1 9-4h-7M61 337c-4 5-5 6-2 6l4-2 3-3 1-1 1-2 2-2h-6l-3 4m303 3c0 1 1 2 3 2 1 0 2 0 1 1l-2 1-1 1h9l-2-3c-2-4-2-4-3-3h-2c-2-2-3-1-3 1m34 0-1 1c-2-1-5 3-4 4h-1l-2 1 1 1 2 1-2 3-2 3 1 2c2 3 4 4 4 2l-1-1-1-3v-2l3 2c2 3 4 3 3 0 0-1-1-2-2-1l-1-2 2-2 2-1h-3v-4h2l1 1v-7l-1 2m-64 4-16 3c-12 3-12 4-3 9l4 2 2-2 1-2 2 1 1 1 2-1 1-1 4 1 7 3 6 2 6 2 4 2 4 1h2l1-2c0-2 1-3 2-3 2-1 1-5 0-5l-3 1-2 1h-1l-2 1h-2c0-1 3-3 5-3h2v-2c-1-1 0-2 1-3l1-2h-1l-3 1-1 1-1-2-2-2-5-2c-4-2-9-2-16 0m-315 5 3 3 1 5 1 10 1-2v-4l-1-2v-1h6l-1-1-1-1-10-10 1 3m301-1-5 3c1 1 8 0 8-1l4-1c4-1 6-3 2-3l-9 2m-190 8-2 4 2-1c1-1 2-2 4-1 2 0 3 1 1 3v2l3-2 1-1-1-1-2-1 1-3v-2h-2c-1 0-4 1-5 3m-40-1-1 1-5 4-5 4-2 2h-2l1-1c2-1 1-4-1-4h-1l1-2 1-1h-2l-4 3c-1 1-2 2-3 1l2-2c2-1 2-2 1-3 0-1-2 0-4 3l-5 3 2-2c2-2 1-3-2-2s-4 3-2 4h-3v2l1 2c3 0 1 3-2 4-4 0-5 2-4 3h6l7-2c7 0 8 1 3 3l-3 2 1 2v1h-1c-1-1-4 0-6 2l-6 2-3 1-1 1h2c2 0 4 2 3 3l1 2c2 2 3 1 2-1v-3h1c2 0 6-2 9-5l4-3 1-1 1-1h4l-1-1-1-2h2c3 0 7-2 6-4l1-2 4-6 4-6 1-1-1-1-1 1m312 2-6 3-4 4 3-1 6-3 3-2 1-1 3-1c1-2-3-1-6 1m-278 2-6 4c-7 4-8 7-2 4l4-3 3-1 4 1v-2c1-2-1-5-3-3m282 1-3 1c-2 0-7 3-8 6l-1 2 1 2c2 2 14-7 14-11 0-2-1-3-3 0m-240 8-2 1-3 3v2h3c4 0 6-2 5-3l1-1c3 0 2-2 0-2h-4m-77 3a109 109 0 0 0-10 7l-6 5-2 2h2l6-2 4-1v1l-2 2c-2 0-7 1-10 3-2 1-4 2-5 1l-5 2-4 3-1-1c-2-1-5-1-10 1l-3 1 1 2 1 1h-1c-2 0-4 2-2 3 1 1 4 0 4-1 0-2 6-5 9-5l1 2-1 2 4-1 7-2c3 0 4-1 4-2h1l2-1c0-1 1-2 3-2h3l-3 2-2 1h2c2 0 15-10 15-11l5-4 1-1 1-2c1 0 2 1 1 2v2l1-2 1-1-1-1-1-1 2-2 2-1h-2l-2-1-2 2-2 2-2 1 1-5v-3l-5 3m224-2-2 1c-2-1-2-1-1 2 2 3 1 4-2 2-2-2-3-1-3 1v2l-1 2v1l4-1h4v1l1 1-1-3-1-1 2 1c3 1 5 1 3-1s-1-3 1-3h3l1-2-3-2c-4-2-7-3-5-1m-278 3h-4l-3 1-4 2c-1 1-1 1 2 1l4 1 3 1 3 1v-4l-1-3m358 1-2 1-1 1h-2c-2 0-3 1-1 3l2 2c1 2 7 5 7 4l-1-1c-2-1-2-3-1-3l3-2c3-2 2-4 0-4l-3-1h-1M24 386l-2 3-1 2 2 1h5l2-1h-2l1-1 1-2-1-1-5-1m97 12-1 1-2 1-2 2-2 2v2l-2-1c-2 0-6 3-8 7l-2 2c-1-1-4-1-6 1l-5 4-2 2h1l5-1c4 0 5-1 3-2h1l2-1 1-1 1 1 1 2c1 1 7-4 7-6l3-3c1-2 2-3 1-4l2-2 2-2 2-1c2-1 4-4 1-4l-1 1m336 0-3 2-1 3-2 3v2l1-2c1-2 4-1 4 1l-4 2-3 1 2 1 1 1-2 1-2 1c-1 2 5 0 7-3l3-3v2l-2 4-3 3-1 1-1 1 3 1c2-1 3 1 0 1-2 1-4-1-4-3l-1-1v5c-2 0-3 3-1 5l1-1 2-2h3l-1 3-1 2h-3l-3-1-2 1-4 2-1 2 1 1 1 1v2l-1 1-2 1-1 1 2-1 1 1v1l1 1-1 2c-2 2-4 1-2-1l-1-1-1 3v4l-1 2v-3l1-2h-6v2c-1 2 0 3 2 4v3l-1 2h1l1 1h-2l-2-1-1-1v-2l-1-2-2 1-1 1v-1c0-2-2-3-3-2-2 1 2 6 4 6l2-1-1 2-1 2h35v-20h-1c-2 0-2-3-1-4l2-7c0-5 0-6-1-5l-1 1-1-1-1-1 2-1h2v-25l-3 1m-172 1v1c1 3 1 4-2 4l-2 1-3 1-6 5-4 5-2-2-1-2-3 1-4 3-2 1h-1v-3l1-2h-2l-2 1v-2c0-3-1-2-3 0l-1 3-4-1-2-2c1-1 0-4-1-4l-1 2c0 4-2 8-3 7-2-1-3 1-2 3 2 2 0 4-2 2l-1-2-2 2-2 1 1 1c1 1 1 1-1 2l-2 1-2 1h-2l1 1c4 1 1 4-3 4h-4v1l-1 2v3l1 2h-2l-3 6c0 2 0 2-1 1l-2-1v1l-2 4v3l1-1h4l-2 3-2 3c-1 1 2 1 7 1h9l1-1 1-2 2 1h4l1-1v1l-1 2h13v-3l2-4v7h40l-4-1-5-3-1-1h-3c-1-1-3-2-4-1-2 0-2 0-1-1l1-1-1-1h-2l-2 1-1-1c1-2-2-5-2-3v2l-2-1-3-2-1-1-1-2-1-3-2-1-1 2c1 3 0 3-2 1l-3-1c-2 1-5-5-4-8l-1-3-1-1h1l5 3 7 4 3 2 1 1 4 3 7 4a96 96 0 0 1 20 10l3 1 7 2h7l-3-1c-3-3-9-5-10-5-2-1-6-4-6-6l-1-1c-2 1-6-1-6-2l1-1 1-1-1-1-2 1v1l-1-1-1-1 1-1 1-1-1-1-3-2c-1 0-1 1 1 1l2 2h-3c-2 0-4-1-5-3-4-3-3-5 0-3l7 3h5l5 5 5 5v-2l-1-2 2 2 5 3 3 2 6 3-1-1 2 1 1 2c0 2 2 3 4 3l2 1h5l32 1h30l-3-1-2-5-1-2-3-1h5l2-2 2-1-2-3c-2-3-3-4-4-2l-1 2-1-2c-1-2-3-2-4-2h-2v-6l1-2h-2l-4 1-5-1-4-1-2-2-1-2h-7l-1 2c-1 4-4 2-3-1v-7c-1 0-3 5-2 7v1h-3a1309 1309 0 0 0-10 0c0-2 4-4 8-4h4v-5c1-4 0-7-1-7l-2 1-2 3-2 3-1 1v-2l1-4v-2l-2 2-2 3-1 1-1-2 1-2h-7l-2 3-2 4-2-1h-2c2 2 1 3-1 3-3 0-5-2-3-2l1-2-3-1h-2c-1-1-2 0-3 1-4 4-7 4-4 0l2-1-3 1-2 1-1-2c-1-2-2-3-3-2s-1-1-1-7l2-4 2-1-1-1-1-2 2-1h3l-3-1c-2 0-3-1-3-2l1-1-2 1m-196 7-1 1-5 3c-5 4-6 6-3 6l1-1c0-2 9-8 11-8 1 1 2 0 1-1 0-1-4-2-4 0m214 9-1 2 1 2c2 1 3 1 5-1l2-1v2l1 2 1-3v-4l1-1h-1l-3 2-1 1-1-1c0-3-2-2-4 0m-183 3-2 2h3l3 1c0 2 3 1 6-1l3-2-2-1-1-1v2l-2 2v-1c0-2-1-2-3-1l-2 1 1-2 1-1c0-2-3-1-5 2m149 0-5 2-5 1-1 1h8l5 1v-2l1-2 1-2c0-2-2-1-4 1m-221 5c1 1 0 2-1 2h-1l-2 1-4 3c-2 1-3 2-3 4l-2 3-5 3-4 1v2c1 3 3 4 3 1v-2l1 2 2 2 1-2 1-1-1-1-1-1h6l-1-3v-2l1 1c2 0 5-2 5-4l3-1 1-1-1-1 1-1c1 1 3 0 4-1l2-2-1-2h-4m69 1-3 4v1h3l6-1c3 0 4-2 1-2v-1l1-1-1-1h-2c0-1-1-1-5 1m160-1-2 1c-1 0-1 0 0 0l11 4 10 3 2 3c3 3 11 6 17 6 5 0 5-2-1-2-3 0-5-2-4-3s-3-4-6-4l-4-1c0-2-9-4-12-3l-1-1-8-4-2 1m-171 1-3 3c-4 1-6 3-5 5l2-1 4-1c2 0 4-3 3-5l-1-1m-12 4-5 3c-1 1-3 3-5 3l-3 3h-1c-1 0-2-1-1-2v-2l-1 2v3l1 1h-1l-2-1c0-2-4-2-7-1l-5 2-3 2-2 1-2 2-1 2c-1-1-2 0-3 1-2 1-2 2-1 2h6l-1 2 1 2 1 1 6 3 6 1 5-2 8-1c4 0 6-1 3-2s-3-3 1-2l2-1c0-1-3-2-5-1l-3-1-1-2-3 2-3 2-2 1c-4 0-4-1 0-3 3-1 4-3 1-3l-1-1h2c1 0 15-8 16-10l2-1c3 1 5 0 3-1l-1-1 1-2 2-2-4 1m61 5c-1 1-3 2-4 1l-3 1-2 2c-2 0-2 2-1 4l1 1c0-2 5-8 6-6v1l2-1 2-1v1h-2l1 2-1 2-1-1c0-1-1-1-1 1l-2 2v2l1 3v3l2 2 2-2 2-2h-1l-3-1 2-6h1l-1 1v3c0 2 2 3 2 1l2-2 5-4 4-4h-1c-1-1-3 0-3 1l-3 1 1-2c3-2 3-3-1-2h-3l1-1c0-3-1-2-4 0m172 3c1 1-2 3-3 1l-2-1-1 2c0 3 4 4 11 4l2 1 8 2 12 2h3v-5l-3-1h-11l-5-1-1-1 1-2 1-1-4 1h-5l-2-1h-1m-30 2c-1 0 9 5 12 5l5 2c2 1 5 2 7 1h5c5 0-3-3-9-3l-17-5h-3m46 10 2 2h3l1 1-1 1h-2c-1 1 0 2 2 2 3 0 3-1 3-3s4-1 5 0c0 2 7 3 7 1l-5-3-14-2-1 1m-249 4-4 4 1 1 2 2v-3l2-3 1 1c-1 3 0 3 3 0 2-3 3-4 1-4v-1c1-2-2-1-6 3"/></svg>